<?xml version="1.0" encoding="utf-8"?>
<!-- Generator: Adobe Illustrator 24.1.1, SVG Export Plug-In . SVG Version: 6.00 Build 0)  -->
<svg version="1.1" id="Layer_1" xmlns="http://www.w3.org/2000/svg" xmlns:xlink="http://www.w3.org/1999/xlink" x="0px" y="0px"
	 width="48px" height="48px" viewBox="0 0 48 48" enable-background="new 0 0 48 48" xml:space="preserve">
<path fill="#006C35" d="M2,11.449c14.667-5.02,29.333,5.02,44,0c0,8.367,0,16.734,0,25.102c-14.667,5.02-29.333-5.02-44,0
	C2,28.184,2,19.816,2,11.449z"/>
<path fill-rule="evenodd" clip-rule="evenodd" fill="#FFFFFF" d="M28.989,29.517c0,0-0.001,0-0.002,0.001
	c-0.322,0.018-0.312,0.285-0.105,0.433c-3.4-0.508-8.618-1.506-9.737-1.631c-0.626-0.101-2.607-0.406-2.645-0.403
	c0.425,0.541,1.04,0.714,1.845,0.835c3.5,0.475,7,1.171,10.5,1.678c-0.142,0.178,0.013,0.524,0.124,0.598
	c0.002,0.002,0.006,0.003,0.008,0.005c0.004,0.002,0.009,0.004,0.014,0.006c0.001,0.001,0.004,0,0.005,0.001
	c0.132,0.043,0.19-0.024,0.234-0.073c0.214,0.049,1.418,0.222,1.528,0.202c0,0,0.001-0.001,0.002-0.001
	c0.075,0.097,0.148,0.188,0.29,0.19c0.248-0.012,0.444-0.013,0.45-0.412c0,0-0.025-0.684-0.589-0.708
	c-0.133,0-0.508-0.018-0.508-0.017c-0.433-0.097-0.751-0.143-1.238-0.227c0.045-0.039,0.124-0.211,0.027-0.291
	c-0.025-0.019-0.063-0.036-0.115-0.039c-0.001,0-0.001,0-0.002,0c-0.001,0-0.003-0.001-0.003,0c0-0.001-0.001-0.001-0.002-0.002
	c-0.001,0-0.004-0.002-0.005-0.002c-0.003-0.001-0.006-0.006-0.008-0.008c-0.001-0.002-0.003-0.002-0.003-0.003
	c-0.025-0.032-0.038-0.104-0.054-0.124c-0.001,0-0.001-0.001-0.002-0.002l-0.002-0.002c-0.001-0.001-0.002-0.002-0.003-0.002
	C28.992,29.517,28.991,29.517,28.989,29.517L28.989,29.517z M29.22,30.525c0.001,0,0.001,0.001,0.002,0
	c0.496,0.09,0.962,0.137,1.458,0.218c0.079,0.062,0.039,0.18-0.012,0.195c-0.003,0.001-0.006,0.001-0.008,0.002
	c-0.002,0-0.005-0.001-0.007-0.001s-0.005,0-0.007-0.001c-0.139-0.021-0.277-0.041-0.416-0.062c0-0.006-0.001-0.013-0.003-0.019
	c-0.038-0.094-0.315-0.125-0.38-0.064c-0.001,0.002-0.002,0.003-0.003,0.003c-0.001,0.001-0.002,0.003-0.003,0.005
	c-0.001,0.002-0.002,0.004-0.003,0.006c-0.001,0.003-0.001,0.007-0.002,0.009c0,0.003-0.002,0.007-0.002,0.011
	c-0.217-0.009-0.414-0.062-0.632-0.1C29.138,30.655,29.145,30.54,29.22,30.525L29.22,30.525z"/>
<path fill="#FFFFFF" d="M30.763,23.318c0.069,0.041,0.249-0.131,0.243-0.373c0.02-0.122-0.051-0.587-0.231-0.687
	c-0.021-0.009-0.043-0.015-0.065-0.014c-0.094,0.001-0.183,0.064-0.142,0.193c-0.026,0.069,0.128,0.341,0.167,0.481
	c0.036,0.101-0.046,0.361,0.028,0.398C30.763,23.317,30.763,23.317,30.763,23.318z M16.557,17.255
	c0.22,0.116,0.633,0.126,0.616-0.183c0-0.027-0.007-0.12-0.01-0.145c-0.022-0.049-0.064-0.07-0.104-0.069l0,0
	c-0.04,0.001-0.078,0.026-0.092,0.07c-0.009,0.03,0.015,0.083-0.017,0.095c-0.018,0.016-0.088-0.005-0.085-0.09
	c0-0.027-0.023-0.058-0.037-0.077c-0.014-0.011-0.023-0.014-0.049-0.017c-0.031-0.003-0.03,0.006-0.047,0.025
	c-0.008,0.02-0.017,0.043-0.017,0.069c-0.004,0.03-0.018,0.038-0.044,0.04c-0.029-0.003-0.022-0.001-0.045-0.017
	c-0.013-0.018-0.03-0.021-0.03-0.044c0-0.02-0.007-0.061-0.015-0.077c-0.012-0.016-0.031-0.025-0.054-0.033
	c-0.12-0.012-0.129,0.105-0.122,0.152c-0.009,0.008-0.014,0.219,0.151,0.297C16.557,17.252,16.557,17.254,16.557,17.255z
	 M14.791,17.072c0.034,0.075-0.033,0.305,0.037,0.333c0.065,0.029,0.154-0.15,0.187-0.32c0.019-0.092,0.004-0.419-0.249-0.506
	c-0.013-0.004-0.026-0.009-0.04-0.01c-0.097-0.01-0.204,0.034-0.162,0.138c-0.024,0.053,0.19,0.256,0.228,0.362
	C14.791,17.07,14.791,17.071,14.791,17.072z M22.571,18.215c0.126-0.276,0.127-0.401,0.136-0.526
	c-0.02-0.099-0.068-0.153-0.122-0.159c-0.054-0.004-0.115,0.039-0.164,0.138c-0.042,0.074-0.094,0.488-0.085,0.49
	C22.301,18.278,22.487,18.361,22.571,18.215L22.571,18.215z M20.999,17.872c0.063,0.088,0.124,0.089,0.249,0.055
	c0.072-0.034,0.096-0.06,0.12-0.133c0.03-0.125-0.157,0.036-0.181-0.112c-0.042-0.141,0.078-0.176,0.191-0.287
	c0.003-0.059,0.004-0.11-0.042-0.119c-0.021-0.004-0.052,0.001-0.095,0.016c-0.098,0.04-0.292,0.185-0.298,0.386
	C20.938,17.79,20.913,17.786,20.999,17.872L20.999,17.872z M14.575,19.101c0.643,0.105,0.288-0.92,0.521-1.081
	c0.044-0.085,0.126-0.08,0.132,0.032c0,0.282,0,0.565,0,0.847c-0.006,0.274,0.203,0.375,0.365,0.448
	c0.169,0.003,0.28,0.019,0.347,0.169c0.027,0.491,0.054,0.982,0.08,1.473c0-0.001,0.39,0.138,0.408-0.78
	c0.019-0.539-0.124-1.008-0.04-1.104c0.003-0.103,0.156-0.091,0.261-0.029c0.168,0.123,0.243,0.257,0.504,0.238
	c0.397-0.046,0.637-0.181,0.643-0.446c-0.023-0.255-0.057-0.511-0.182-0.779c0.017-0.043-0.076-0.175-0.059-0.218
	c0.071,0.106,0.179,0.113,0.204,0.026c-0.068-0.203-0.173-0.4-0.343-0.503c-0.141-0.125-0.346-0.128-0.422,0.088
	c-0.035,0.253,0.108,0.577,0.325,0.854c0.046,0.103,0.11,0.274,0.082,0.417c-0.115,0.042-0.23,0.005-0.326-0.095
	c0,0-0.316-0.243-0.316-0.288c0.084-0.456,0.018-0.517-0.028-0.652c-0.032-0.183-0.13-0.251-0.209-0.381
	c-0.079-0.081-0.186-0.093-0.238-0.026c-0.14,0.196-0.074,0.654,0.027,0.867c0.073,0.195,0.185,0.322,0.132,0.317
	c-0.043,0.099-0.134,0.067-0.199-0.062c-0.093-0.26-0.112-0.636-0.112-0.805c-0.028-0.212-0.059-0.661-0.218-0.791
	c-0.042-0.055-0.092-0.076-0.141-0.077c-0.062,0-0.121,0.038-0.149,0.094c-0.01,0.206-0.012,0.414,0.015,0.607
	c0.109,0.345,0.143,0.644,0.196,0.992c0.014,0.462-0.306,0.167-0.291-0.058c0.074-0.289,0.054-0.757-0.012-0.881
	c-0.052-0.123-0.112-0.158-0.239-0.15c-0.101-0.016-0.361,0.209-0.434,0.61c0,0-0.061,0.203-0.087,0.388
	c-0.036,0.207-0.196,0.343-0.308-0.054c-0.097-0.29-0.156-0.989-0.318-0.837c-0.046,0.54-0.101,1.489,0.43,1.627
	C14.575,19.099,14.575,19.1,14.575,19.101z M18.718,18.645c0,0.001,0.001,0,0.002,0c0,0,0.001,0.001,0.002,0.002
	c0,0,0.001,0.001,0.002,0c0.001,0.001,0.001,0.001,0.002,0.002c0.042,0.028,0.557,0.104,0.614,0.091c0,0,0.001-0.002,0.002-0.001
	h0.002c0-0.001,0-0.002,0-0.002c0.177-0.032,1.018-0.736,1.018-0.735c-0.044-0.04-0.084-0.07-0.127-0.109
	c-0.047-0.043-0.042-0.075,0-0.105c0.208-0.073,0.142-0.315,0.033-0.436c-0.09-0.049-0.175-0.074-0.251-0.082
	c-0.07-0.01-0.138-0.004-0.201,0.017c-0.146,0.099-0.18,0.287-0.065,0.427c0.112,0.063,0.223,0.178,0.149,0.22
	c-0.317,0.243-1.14,0.613-1.182,0.698c0,0-0.001,0.002-0.002,0.002c0,0,0,0.002,0,0.003s0,0.001,0,0.002
	c0,0.002,0.001,0.003,0.002,0.003C18.717,18.644,18.718,18.644,18.718,18.645L18.718,18.645z M19.965,17.523c0.004,0,0.007,0,0.01,0
	c0.051,0.001,0.113,0.054,0.144,0.116c0.032,0.068,0.016,0.122-0.037,0.127c-0.053,0.003-0.121-0.049-0.154-0.115
	C19.896,17.585,19.913,17.526,19.965,17.523L19.965,17.523z M21.128,19.503c0.257,0.135,0.42-0.264,0.526-0.711
	c0.072-0.119,0.127-0.124,0.164-0.052c-0.009,0.617,0.051,0.764,0.234,0.983c0.409,0.341,0.747,0.161,0.773,0.142
	c0.106-0.074,0.212-0.148,0.318-0.222c0.071-0.052,0.164-0.04,0.264,0.033c0.097,0.093,0.085,0.224,0.293,0.351
	c0.175,0.091,0.549,0.108,0.636-0.007c0.117-0.153,0.145-0.209,0.199-0.265c0.083-0.081,0.226-0.015,0.226,0.018
	c-0.013,0.052-0.097,0.09-0.04,0.196c0.099,0.08,0.122,0.042,0.181,0.04c0.207-0.051,0.363-0.415,0.363-0.415
	c0.009-0.145-0.086-0.149-0.147-0.13c-0.08,0.029-0.084,0.042-0.164,0.071c-0.101-0.002-0.298,0.02-0.395-0.127
	c-0.099-0.173-0.1-0.392-0.176-0.564c0-0.012-0.133-0.271-0.01-0.266c0.062,0.022,0.195,0.073,0.216-0.02
	c0.065-0.083-0.14-0.385-0.28-0.543c-0.121-0.136-0.288-0.179-0.45-0.089c-0.113,0.071-0.097,0.175-0.119,0.267
	c-0.029,0.105-0.023,0.243,0.105,0.41c0.113,0.213,0.319,0.497,0.251,0.836c0,0.001-0.12,0.146-0.33,0.089
	c-0.088-0.032-0.23-0.089-0.306-0.588c-0.057-0.377,0.014-0.881-0.166-1.154c-0.04-0.099-0.076-0.192-0.134-0.196
	c-0.035-0.004-0.078,0.028-0.137,0.113c-0.043,0.09-0.226,0.206-0.094,0.536c0.108,0.212,0.153,0.535,0.104,0.877
	c-0.075,0.086-0.092,0.119-0.191,0.201c-0.138,0.107-0.288,0.047-0.403-0.02c-0.108-0.082-0.192-0.127-0.241-0.335
	c0.009-0.317,0.03-0.835-0.037-0.956c-0.099-0.186-0.262-0.153-0.331-0.113c-0.335,0.21-0.5,0.631-0.601,0.971
	c-0.093,0.245-0.192,0.154-0.261,0.037c-0.169-0.164-0.181-1.241-0.385-1.097c-0.327,0.758,0.188,1.727,0.544,1.699
	C21.128,19.504,21.128,19.504,21.128,19.503z M19.781,18.713c-0.195,0.062-0.27,0.321-0.149,0.499
	c0.113,0.156,0.292,0.134,0.316,0.137c0.191,0.051,0.305-0.264,0.305-0.264s0.006-0.092-0.221,0.048
	c-0.095,0.003-0.108-0.031-0.132-0.081c-0.02-0.088-0.015-0.176,0.03-0.255c0.021-0.048,0-0.084-0.045-0.096
	C19.858,18.695,19.822,18.698,19.781,18.713L19.781,18.713z M32.373,24.772c-0.042-0.045-0.136-0.031-0.199-0.041
	c-0.03-0.003-0.129-0.028-0.082-0.097c0.039-0.043,0.054-0.07,0.08-0.126c0.03-0.054,0.003-0.095-0.104-0.137
	c-0.055-0.015-0.092-0.021-0.132-0.026c-0.04-0.003-0.082-0.003-0.142-0.003c-0.066,0.005-0.089,0.028-0.1,0.095
	c0.005,0.106,0.078,0.107,0.154,0.157c0.044,0.053,0.072,0.1-0.003,0.171c-0.065,0.042-0.129,0.083-0.194,0.124
	c-0.034,0.046-0.055,0.12,0.049,0.156c0.191,0.067,0.633-0.136,0.633-0.143c0.072-0.039,0.048-0.13,0.042-0.131
	C32.373,24.773,32.373,24.772,32.373,24.772z M33.744,20.512c-0.014-0.095-0.062-0.31-0.044-0.336
	c0.029-0.062,0.177,0.019,0.229-0.052c0.077-0.064-0.382-0.604-0.542-0.835c-0.032-0.058-0.052-0.104-0.08-0.103
	c-0.022,0.001-0.049,0.03-0.09,0.102c-0.099,0.134-0.134,0.383-0.094,0.609c0.239,1.423,0.417,2.795,0.454,4.042
	c-0.02,0.116-0.026,0.178-0.09,0.323c-0.141,0.146-0.297,0.33-0.444,0.413c-0.147,0.082-0.459,0.145-0.561,0.205
	c-0.324,0.131-0.326,0.318-0.064,0.35c0.451,0,0.985,0.009,1.352-0.447c0.098-0.128,0.214-0.486,0.219-0.71
	C34.025,22.762,33.971,21.477,33.744,20.512L33.744,20.512z M14.218,20.402c0.558-0.193,1.116-0.377,1.674-0.553
	c-0.092-0.127-0.006-0.227-0.35-0.268C15.013,19.538,14.238,20.074,14.218,20.402L14.218,20.402z M14.516,21.928
	c-0.139,0.235-0.197,0.063-0.209-0.075c-0.021-0.261,0.008-0.498,0.04-0.685c0.017-0.096,0.017-0.13,0.004-0.13
	c-0.013,0-0.04,0.032-0.075,0.068c-0.315,0.414-0.343,1.06-0.169,1.266c0.092,0.098,0.244,0.148,0.357,0.128
	c0.198-0.06,0.285-0.398,0.238-0.531C14.634,21.874,14.582,21.857,14.516,21.928L14.516,21.928z M18.462,21.708
	c0.229-0.63-0.005-1.163,0.072-1.213c0.001,0,0.003-0.001,0.004-0.001s0.003-0.001,0.003-0.001c0.001-0.001,0.002-0.001,0.004-0.001
	c0.003,0,0.007,0,0.01,0c0.283,0.304,0.68,0.13,0.767,0.052c0.037-0.04,0.131-0.056,0.196,0.011
	c0.221,0.172,0.607,0.165,0.688-0.065c0.047-0.23,0.086-0.468,0.095-0.72c-0.144,0.016-0.26,0.028-0.306,0.063
	c-0.011,0.01-0.019,0.018-0.022,0.032c-0.012,0.068-0.025,0.137-0.037,0.205c-0.001,0.007-0.003,0.011-0.007,0.017
	c-0.007,0.008-0.016,0.015-0.027,0.017c-0.051,0.015-0.139-0.01-0.144-0.076c-0.068-0.279-0.35-0.357-0.521,0.035
	c-0.115,0.065-0.325,0.049-0.347-0.074c0.028-0.275-0.103-0.333-0.363-0.237c-0.084-0.559-0.167-1.117-0.251-1.676
	c0.109,0.012,0.209,0.095,0.308,0c-0.107-0.307-0.335-0.927-0.464-1c-0.001-0.001-0.002-0.002-0.004-0.002
	c-0.006-0.006-0.012-0.013-0.018-0.02c-0.003-0.002-0.005-0.004-0.008-0.007c-0.002-0.001-0.006-0.004-0.008-0.007
	c-0.005-0.004-0.011-0.008-0.017-0.008c-0.011-0.004-0.023-0.006-0.035-0.007l0,0c-0.032-0.002-0.067,0.009-0.109,0.012
	c-0.137,0.02-0.265,0.106-0.224,0.311c0.143,0.803,0.286,1.607,0.429,2.41c0.025,0.103-0.072,0.221-0.196,0.192
	c-0.211-0.152-0.263-0.41-0.624-0.444c-0.261-0.031-0.559,0.182-0.596,0.415c-0.044,0.183-0.059,0.386,0,0.558
	c0.183,0.212,0.403,0.219,0.596,0.199c0.158-0.036,0.289-0.156,0.345-0.116c0,0,0.002-0.001,0.002,0c0,0,0,0.001,0,0.002
	c0.035,0.058-0.003,0.493-0.747,0.746c-0.457,0.124-0.82,0.129-1.016-0.215c-0.121-0.214,0.009-0.971-0.29-0.823
	c-0.882,1.878,2.067,2.461,2.397,0.358c0.021-0.059,0.086-0.11,0.132-0.09c0.02,0.012,0.039,0.036,0.045,0.081
	c-0.068,1.943-2.282,1.811-2.658,1.171c-0.093-0.154-0.121-0.482-0.131-0.676c-0.017-0.12-0.051-0.19-0.09-0.22
	c-0.089-0.066-0.21,0.076-0.236,0.338c-0.037,0.21-0.027,0.269-0.027,0.474c0.118,1.539,2.967,1.192,3.43-0.004
	C18.463,21.705,18.462,21.706,18.462,21.708z M17.361,20.222v0.002c0,0-0.001,0.003-0.002,0.002c-0.022,0.022-0.1,0.002-0.156-0.004
	c-0.067-0.01-0.1-0.024-0.141-0.077c-0.019-0.056,0.039-0.099,0.065-0.136c0,0,0.001-0.001,0.002-0.001
	c0.003-0.002,0.007-0.008,0.012-0.01c0.02-0.014,0.055-0.026,0.092-0.024c0.007,0,0.014,0,0.022,0.001
	c0.052,0.006,0.107,0.034,0.136,0.102C17.413,20.13,17.402,20.185,17.361,20.222C17.362,20.222,17.361,20.222,17.361,20.222z
	 M29.575,24.687c-0.165-0.007-0.33-0.015-0.496-0.024C29.245,24.672,29.41,24.68,29.575,24.687z M26.781,20.243
	c0.22,0.127,0.635,0.153,0.618-0.158c0-0.027-0.008-0.121-0.012-0.146c-0.022-0.05-0.064-0.072-0.104-0.073
	c-0.04,0.001-0.078,0.025-0.092,0.068c-0.009,0.03,0.017,0.083-0.015,0.093c-0.018,0.015-0.09-0.008-0.087-0.093
	c0-0.026-0.023-0.06-0.037-0.08c-0.014-0.011-0.023-0.015-0.049-0.02c-0.031-0.004-0.03,0.004-0.047,0.023
	c-0.007,0.019-0.017,0.042-0.017,0.069c-0.004,0.029-0.016,0.038-0.042,0.038c-0.029-0.005-0.024-0.002-0.047-0.019
	c-0.013-0.017-0.03-0.022-0.03-0.046c0-0.02-0.007-0.061-0.015-0.078c-0.012-0.017-0.031-0.023-0.054-0.033
	c-0.12-0.019-0.127,0.098-0.121,0.144c-0.009,0.007-0.015,0.221,0.149,0.306C26.781,20.241,26.781,20.242,26.781,20.243z
	 M30.333,21.563c0.004-0.18,0.024-0.415,0.035-0.563c0.005-0.055,0.02-0.115,0.082-0.122s0.169,0.075,0.171,0.015
	c-0.011-0.116-0.038-0.287-0.112-0.377c-0.038-0.055-0.101-0.089-0.166-0.1c-0.108-0.022-0.223,0.027-0.253,0.152
	c0,0.076,0.039,0.122,0.032,0.19c-0.011,0.037-0.058,0.058-0.169-0.005c0.018-0.013-0.072-0.134-0.072-0.133
	c-0.087-0.057-0.202-0.025-0.278,0.007c-0.041,0.06-0.072,0.167-0.025,0.288c0.124,0.218,0.551,0.614,0.755,0.644
	C30.333,21.561,30.333,21.562,30.333,21.563z M28.961,23.858c0.154,0.023,0.331-0.258,0.407-0.549c0.042-0.41-0.028-0.674-0.04-0.92
	c-0.013-0.247-0.319-2.277-0.382-2.471c-0.075-0.361,0.299-0.004,0.258-0.212c-0.129-0.275-0.451-0.697-0.552-0.934
	c-0.038-0.066-0.043-0.122-0.074-0.121c-0.019,0.001-0.046,0.019-0.097,0.071c-0.126,0.339-0.17,0.623-0.122,0.853
	C28.682,21.088,29.013,22.471,28.961,23.858L28.961,23.858z M27.809,23.385c-0.354,0.266-0.865,0.58-1.421,0.671
	c-0.06,0.049,0.149,0.33,0.418,0.375c0.451,0.028,0.848-0.129,1.215-0.651c0.098-0.12,0.271-0.383,0.276-0.606
	c0.034-1.307-0.076-2.345-0.303-3.328c-0.015-0.094-0.005-0.202,0.013-0.227c0.029-0.026,0.128,0.021,0.181-0.046
	c0.077-0.056-0.206-0.667-0.367-0.909c-0.032-0.06-0.052-0.106-0.08-0.108c-0.022-0.001-0.049,0.024-0.09,0.093
	c-0.099,0.125-0.167,0.361-0.159,0.592c0.215,1.327,0.281,2.468,0.422,3.782C27.926,23.15,27.905,23.328,27.809,23.385
	L27.809,23.385z M26.93,19.072c0.079,0.203-0.06,0.363,0.022,0.403c0.075,0.041,0.18-0.168,0.219-0.371
	c0.045-0.162-0.094-0.531-0.291-0.635c-0.015-0.005-0.031-0.007-0.047-0.014c-0.113-0.022-0.238,0.02-0.189,0.15
	c-0.028,0.063,0.243,0.334,0.286,0.465C26.93,19.07,26.93,19.071,26.93,19.072z M30.908,21.627c-0.006-0.002-0.012-0.001-0.018,0
	c-0.349,0.175-0.697,0.348-1.046,0.518c-0.101,0.064-0.051,0.346,0,0.321c0.073,0.036,1.101-0.437,1.081-0.512
	C30.97,21.96,30.991,21.649,30.908,21.627L30.908,21.627z M30.189,19.774c0.31,0.372,0.614,0.747,0.911,1.124
	c0.065,0.729,0.082,1.391,0.147,2.121c-0.009,0.309-0.119,0.706-0.223,0.732c0,0-0.159,0.061-0.264-0.041
	c-0.077-0.036-0.385-0.494-0.385-0.494c-0.158-0.146-0.263-0.123-0.375-0.049c-0.309,0.218-0.449,0.684-0.659,0.989
	c-0.054,0.067-0.207,0.108-0.377-0.06c-0.349-0.465-0.25-1.007-0.228-1.1c-0.001,0.006-0.003,0.011-0.004,0.017
	c-0.384,0.318-0.214,0.966-0.127,1.112c0.127,0.238,0.229,0.393,0.475,0.538c0.224,0.176,0.399,0.111,0.495,0.024
	c0.226-0.171,0.229-0.69,0.335-0.779c0.074-0.18,0.261-0.121,0.352-0.026c0.088,0.121,0.192,0.206,0.321,0.282
	c0.211,0.187,0.462,0.248,0.71,0.129c0.169-0.063,0.279-0.159,0.378-0.359c0.106-0.236,0.054-1.534,0.03-2.256
	c0.157,0.215,0.315,0.43,0.472,0.643c0.068,0.639,0.1,1.263,0.077,1.858c-0.016,0.118,0.477-0.309,0.474-0.533
	c0-0.179,0-0.359,0-0.539c0.239,0.353,0.471,0.709,0.69,1.067c0.136-0.052,0.089-0.722,0.004-0.82
	c-0.229-0.35-0.523-0.737-0.75-1.036c-0.045-0.357-0.106-0.777-0.134-0.907c-0.043-0.203-0.087-0.505-0.152-0.746
	c-0.018-0.093-0.072-0.393-0.055-0.419c0.027-0.063,0.128,0.014,0.177-0.057c0.074-0.065-0.258-0.84-0.427-1.073
	c-0.061-0.101-0.17-0.08-0.306,0.061c-0.126,0.088-0.08,0.328-0.032,0.554c0.125,0.579,0.236,1.167,0.325,1.75
	c-0.186-0.256-0.373-0.513-0.559-0.771c-0.008-0.038-0.017-0.077-0.025-0.115c0-0.012-0.027-0.466-0.05-0.576
	c-0.004-0.044-0.016-0.058,0.037-0.047c0.056,0.048,0.064,0.05,0.099,0.068c0.057,0.015,0.106-0.062,0.072-0.143
	c-0.175-0.3-0.35-0.601-0.526-0.902c-0.021-0.02-0.045-0.042-0.072-0.049s-0.057,0.001-0.09,0.04
	c-0.064,0.041-0.133,0.121-0.131,0.234c0.015,0.201,0.056,0.41,0.072,0.611c0.006,0.027,0.011,0.055,0.017,0.082
	c-0.018-0.023-0.038-0.045-0.059-0.067c-0.448-0.464,0.205-0.042-0.085-0.392c-0.246-0.265-0.318-0.349-0.529-0.517
	c-0.106-0.074-0.17-0.195-0.204-0.009c-0.013,0.168-0.028,0.361-0.015,0.506C30.013,19.512,30.108,19.674,30.189,19.774
	C30.189,19.773,30.189,19.773,30.189,19.774z M32.786,20.389c0.036,0.099-0.055,0.4,0.02,0.435c0.069,0.038,0.165-0.199,0.201-0.423
	c0.02-0.122-0.086-0.567-0.266-0.661c-0.014-0.005-0.029-0.009-0.043-0.01c-0.103-0.012-0.215,0.044-0.171,0.182
	C32.5,19.982,32.746,20.25,32.786,20.389L32.786,20.389z M24.981,23.76c0,0.008,0.086,0.086,0.187,0.05
	c0.214-0.035,0.347-0.08,0.646-0.087c0.079,0.012,0.074-0.172-0.05-0.198c-0.162-0.017-0.312-0.038-0.474,0.045
	c-0.1,0.001-0.117-0.052-0.139-0.103c-0.025-0.121,0.057-0.19,0.04-0.281c0.004,0.005-0.05-0.048-0.121-0.062
	c-0.026-0.005-0.051-0.005-0.074,0.002c-0.004,0-0.225,0.09-0.296,0.169c-0.043,0.022-0.038,0.047-0.025,0.099
	c0.034,0.073,0.093,0.062,0.161,0.042c0.09,0.003,0.133,0.062,0.126,0.155C24.922,23.7,24.981,23.753,24.981,23.76L24.981,23.76z
	 M25.992,22.08c0.001,0,0.001-0.001,0.002-0.001c0,0.001,0.002-0.001,0.002-0.001s0.001,0,0.002-0.001c0-0.001,0-0.002,0-0.003
	c0-0.005,0-0.01-0.002-0.015c-0.032-0.022-0.065-0.044-0.097-0.066c-0.638-0.11-1.275-0.222-1.913-0.334
	c-0.024-0.013-0.041-0.025-0.052-0.03c-0.001-0.001-0.002-0.003-0.004-0.004c-0.001-0.001-0.001-0.001-0.002-0.002
	c-0.001-0.001-0.001-0.001-0.002-0.002c-0.001-0.001-0.001-0.002-0.002-0.003c-0.001,0-0.001-0.001-0.002-0.002c0,0,0-0.001,0-0.002
	c-0.001-0.001-0.001-0.001-0.002-0.002c0-0.002,0-0.004,0-0.006c0-0.003,0-0.005,0-0.008c0.001,0,0.001-0.001,0.002-0.001
	c0.001-0.001,0.001-0.002,0.002-0.002c0.009-0.008,0.032-0.016,0.06-0.02c0.457,0.025,1.269,0.048,1.322-0.621
	c-0.009-0.355-0.174-0.613-0.673-0.762c-0.367-0.038-0.628,0.225-0.586,0.571c-0.017,0.089,0.036,0.275-0.072,0.278
	c-0.703-0.065-1.471,0.187-1.496,0.457c-0.001,0-0.001,0-0.002,0c-0.001,0-0.001,0.001-0.002,0.001
	c-0.001,0-0.002,0.001-0.004,0.001c-0.001,0-0.002,0-0.004-0.001c0.001,0.001-0.001,0.001-0.003,0.001
	c-0.003,0-0.007-0.001-0.01-0.002c-0.002-0.001-0.004-0.001-0.007-0.003c-0.046-0.02-0.105-0.094-0.095-0.184
	c-0.027-0.478-0.204-1.043-0.482-1.501c-0.099-0.102-0.143-0.144-0.171-0.153c-0.001,0-0.002,0-0.004-0.001
	c-0.003-0.001-0.007-0.001-0.01-0.002c-0.004,0-0.006,0.003-0.008,0.005c-0.002,0-0.003,0.001-0.005,0.001
	c-0.021,0.011-0.047,0.038-0.104,0.064c-0.096,0.079-0.113,0.142-0.107,0.332c0.005,0.019,0.182,0.475,0.331,0.8
	c0.101,0.328,0.194,0.699,0.126,1.024c-0.236,0.406-0.71,0.727-1.168,0.869c-0.233,0.028-0.435-0.026-0.489-0.079
	c-0.001-0.001-0.001-0.001-0.002-0.002c-0.134-0.099-0.137-0.237-0.129-0.261c0-0.001,0-0.001,0-0.002
	c0.001,0,0.001-0.001,0.002-0.001c0.386-0.175,0.828-0.29,1.173-0.866c0.102-0.224,0.133-0.364,0.032-0.753
	c-0.04-0.146-0.088-0.268-0.198-0.384c0.001,0,0.001-0.001,0.002-0.001c0.066-0.017,0.236,0.12,0.263,0.058
	c-0.04-0.185-0.179-0.446-0.336-0.594c-0.138-0.131-0.287-0.167-0.413-0.087c-0.142,0.045-0.172,0.287-0.104,0.514
	c0.076,0.174,0.281,0.235,0.427,0.585c0,0,0,0.001,0,0.002c0.003,0.018,0.05,0.252-0.023,0.33c-0.06,0.152-0.826,0.554-0.88,0.578
	c-0.001,0.001-0.004,0.001-0.005,0.002c-0.001,0-0.001,0.001-0.002,0.001c-0.001,0.001-0.001,0.001-0.002,0.001
	c-0.001,0-0.001,0-0.002,0.001c-0.001,0-0.002,0-0.004-0.001c-0.001,0.001-0.001-0.002-0.002-0.002c0,0,0-0.001,0-0.002
	c-0.001-0.001-0.001-0.002-0.002-0.004c-0.002-0.014,0.002-0.046,0-0.1c-0.005-0.099,0.042-0.315,0.038-0.353c0,0,0-0.001,0-0.002
	c-0.001-0.001-0.001-0.001-0.002-0.002c0,0,0-0.001,0-0.002c-0.001,0-0.001,0-0.002,0c-0.253,0.101-0.337,0.526-0.383,0.647
	c-0.641,0.286-1.37,0.471-1.789,0.805c-0.218,0.263,1.505-0.135,1.706-0.175c0.002,0.002,0.004,0.004,0.005,0.007
	c0.038,0.041,0.041,0.169,0.156,0.301c0.179,0.238,0.56,0.426,0.931,0.405c0.622-0.097,0.98-0.403,1.344-0.75
	c0.052-0.057,0.134-0.095,0.209-0.032c0.25,0.528,0.973,0.997,1.907,1.193c0.216-0.192,0.113-0.32,0.025-0.383
	c-0.027-0.021-0.464-0.244-0.532-0.402c-0.043-0.144,0.061-0.247,0.269-0.304c0.6,0.041,1.189,0.071,1.759,0.008
	c0.006-0.165,0.119-0.395,0.194-0.49c0.052-0.067,0.086-0.066,0.099-0.077C25.991,22.082,25.991,22.081,25.992,22.08z
	 M24.414,20.771c0.001-0.007,0.003-0.009,0.007-0.014c0.001-0.001,0.002-0.002,0.004-0.006c0.001,0,0.001-0.001,0.002-0.001
	c0.002-0.002,0.005-0.005,0.008-0.007c0.012-0.008,0.029-0.011,0.049-0.009c0.042,0.004,0.096,0.025,0.149,0.06
	c0.076,0.051,0.123,0.117,0.117,0.158c0,0.001,0,0.001,0,0.006c0,0.001-0.003,0.002-0.004,0.006
	c-0.001,0.002-0.001,0.004-0.002,0.006c0,0.001-0.001,0.002-0.002,0.002c-0.001,0-0.001,0.001-0.002,0.003
	c-0.003,0.003-0.006,0.01-0.01,0.01c-0.037,0.024-0.121,0.003-0.201-0.049c-0.075-0.051-0.122-0.116-0.117-0.158
	C24.412,20.777,24.413,20.775,24.414,20.771C24.413,20.771,24.414,20.771,24.414,20.771z M23.649,22.302
	c-0.205,0.026-0.402,0.04-0.403,0.297c0.027,0.132,0.021,0.198-0.002,0.225c-0.002,0.003-0.004,0.006-0.007,0.008
	c-0.001,0-0.001,0.001-0.002,0.001c-0.001,0-0.001,0.001-0.002,0.001c-0.001,0.001-0.001,0.002-0.002,0.001
	c-0.001,0-0.001,0.001-0.002,0.001c-0.001-0.001-0.002,0.001-0.004,0.001c-0.003,0.002-0.007,0.001-0.01,0.005
	c-0.003,0.001-0.007-0.001-0.01,0c-0.049-0.002-0.12-0.055-0.172-0.088c-0.127-0.101-0.482-0.351-0.532-0.77
	c-0.007-0.094,0.073-0.16,0.201-0.146c0.006,0.001,0.012,0.002,0.018,0.003c0.001,0,0.002,0.001,0.004,0.001
	c0.213,0.085,0.527,0.146,0.8,0.216c0.222,0.049,0.332,0.22,0.124,0.248C23.649,22.305,23.649,22.304,23.649,22.302z M19.16,21.008
	c-0.005,0.072,0.235,0.198,0.249,0.371c0.034,0.075-0.051,0.287,0.02,0.319c0.066,0.034,0.156-0.132,0.191-0.294
	c0.019-0.088-0.082-0.424-0.254-0.506c-0.027-0.01-0.054-0.017-0.082-0.018C19.2,20.874,19.126,20.901,19.16,21.008
	C19.16,21.007,19.16,21.008,19.16,21.008z M23.015,20.588c0.22,0.128,0.745,0.164,0.618-0.151c0-0.027-0.008-0.121-0.012-0.146
	c-0.022-0.049-0.064-0.074-0.104-0.074s-0.078,0.021-0.092,0.066c-0.009,0.03,0.017,0.084-0.015,0.095
	c-0.018,0.015-0.09-0.01-0.087-0.093c0-0.026-0.023-0.061-0.037-0.08c-0.014-0.011-0.021-0.014-0.047-0.02
	c-0.031-0.004-0.031,0.003-0.049,0.022c-0.007,0.019-0.017,0.043-0.017,0.068c-0.004,0.031-0.016,0.039-0.042,0.038
	c-0.029-0.005-0.022,0-0.045-0.019c-0.013-0.017-0.032-0.023-0.032-0.046c0-0.021-0.005-0.061-0.013-0.078
	c-0.012-0.018-0.033-0.023-0.055-0.033c-0.12-0.021-0.127,0.098-0.12,0.143C22.857,20.287,22.851,20.499,23.015,20.588
	C23.016,20.587,23.016,20.587,23.015,20.588z M24.881,18.802c0.369,0.494,0.725,0.987,1.068,1.492
	c0.054,0.341,0.093,0.673,0.119,1.002c0.056,0.72,0.072,1.606,0.022,2.346c0.153,0.032,0.399-0.149,0.485-0.457
	c0.056-0.437-0.02-1.359-0.025-1.623c-0.004-0.11-0.011-0.241-0.02-0.379c0.417,0.66,0.807,1.331,1.167,2.011
	c0.139-0.035,0.108-0.717,0.027-0.825c-0.304-0.616-0.725-1.244-0.859-1.482c-0.048-0.085-0.213-0.33-0.408-0.613
	c-0.036-0.364-0.075-0.673-0.1-0.769c-0.063-0.389,0.179,0.071,0.146-0.153c-0.079-0.39-0.319-0.687-0.603-1.08
	c-0.091-0.128-0.089-0.151-0.231-0.012c-0.084,0.153-0.083,0.291-0.059,0.424c-0.047-0.068-0.096-0.133-0.149-0.196
	c-0.155-0.14-0.309-0.28-0.464-0.42c-0.064-0.05-0.186-0.132-0.28-0.141c-0.056-0.002-0.101,0.015-0.117,0.085
	c-0.022,0.165-0.011,0.259,0.022,0.404C24.647,18.514,24.804,18.698,24.881,18.802C24.881,18.801,24.881,18.802,24.881,18.802z
	 M25.663,18.911c0.009,0.038,0.019,0.076,0.025,0.114c0.021,0.085,0.039,0.166,0.059,0.249c-0.081-0.11-0.148-0.2-0.177-0.233
	C25.386,18.821,25.574,18.918,25.663,18.911L25.663,18.911z"/>
<linearGradient id="SVGID_1_" gradientUnits="userSpaceOnUse" x1="2" y1="26" x2="46" y2="26" gradientTransform="matrix(1 0 0 -1 0 50)">
	<stop  offset="0" style="stop-color:#FFFFFF;stop-opacity:0"/>
	<stop  offset="0.2205" style="stop-color:#FFFFFF;stop-opacity:0.6"/>
	<stop  offset="0.4084" style="stop-color:#FFFFFF;stop-opacity:0"/>
	<stop  offset="0.5866" style="stop-color:#FFFFFF;stop-opacity:0"/>
	<stop  offset="0.7633" style="stop-color:#FFFFFF;stop-opacity:0.6"/>
	<stop  offset="0.9809" style="stop-color:#FFFFFF;stop-opacity:0.0388"/>
	<stop  offset="0.9959" style="stop-color:#FFFFFF;stop-opacity:0"/>
</linearGradient>
<path opacity="0.2" fill="url(#SVGID_1_)" enable-background="new    " d="M2,11.449c14.667-5.02,29.333,5.02,44,0
	c0,8.367,0,16.734,0,25.102c-14.667,5.02-29.333-5.02-44,0C2,28.184,2,19.816,2,11.449z"/>
<linearGradient id="SVGID_2_" gradientUnits="userSpaceOnUse" x1="2" y1="26" x2="46" y2="26" gradientTransform="matrix(1 0 0 -1 0 50)">
	<stop  offset="0.0036" style="stop-color:#000000;stop-opacity:0.6"/>
	<stop  offset="0.1653" style="stop-color:#00081A;stop-opacity:0.1496"/>
	<stop  offset="0.2191" style="stop-color:#000B24;stop-opacity:0"/>
	<stop  offset="0.3583" style="stop-color:#000B24;stop-opacity:0.0176"/>
	<stop  offset="0.4023" style="stop-color:#000613;stop-opacity:0.1346"/>
	<stop  offset="0.4558" style="stop-color:#000105;stop-opacity:0.2771"/>
	<stop  offset="0.5019" style="stop-color:#000000;stop-opacity:0.4"/>
	<stop  offset="0.6673" style="stop-color:#000001;stop-opacity:0.2"/>
	<stop  offset="0.6977" style="stop-color:#000106;stop-opacity:0.14"/>
	<stop  offset="0.7314" style="stop-color:#000613;stop-opacity:0.0735"/>
	<stop  offset="0.7597" style="stop-color:#000B24;stop-opacity:0.0176"/>
	<stop  offset="0.8254" style="stop-color:#000B24;stop-opacity:0.0176"/>
	<stop  offset="1" style="stop-color:#000000;stop-opacity:0.6"/>
</linearGradient>
<path opacity="0.8" fill="url(#SVGID_2_)" enable-background="new    " d="M2,11.449c14.667-5.02,29.333,5.02,44,0
	c0,8.367,0,16.734,0,25.102c-14.667,5.02-29.333-5.02-44,0C2,28.184,2,19.816,2,11.449z"/>
</svg>